<svg width="2251" height="640" fill="none" xmlns="http://www.w3.org/2000/svg"><g clip-path="url(#a)"><path fill="#0F0F0F" d="M0 0h2251v640H0z"/><path fill="#161616" d="M0 0h3308.26v1.98H0z"/><path fill="#161616" d="M0 857V0h1.98v857z"/><path fill="#161616" d="M0 857V0h1.98v857zM106.88 857V0h1.98v857zM213.75 857V0h1.99v857zM320.63 857V0h1.98v857zM427.51 857V0h1.98v857zM534.39 857V0h1.98v857zM641.27 857V0h1.98v857zM748.14 857V0h1.98v857zM855.02 857V0H857v857zM961.9 857V0h1.98v857zM1068.78 857V0h1.98v857zM1175.65 857V0h1.98v857zM1282.53 857V0h1.98v857zM1389.41 857V0h1.98v857zM1496.29 857V0h1.98v857zM1603.16 857V0h1.98v857zM1710.04 857V0h1.98v857zM1816.92 857V0h1.98v857zM1923.8 857V0h1.98v857zM2030.67 857V0h1.98v857zM2137.55 857V0h1.98v857zM2244.43 857V0h1.98v857z"/><path fill="#161616" d="M0 106.88h3308.26v1.98H0zM0 213.75h3308.26v1.98H0zM0 320.63h3308.26v1.98H0zM0 427.51h3308.26v1.98H0zM0 534.39h3308.26v1.98H0z"/><ellipse opacity=".21" cx="1126" cy="629" rx="1531" ry="778" fill="url(#b)" fill-opacity=".55"/><path d="M1078.29 321.26c-.79 0-1.5-.28-2.13-.84a3.18 3.18 0 0 1-.83-2.16V256.1h-21.1c-.79 0-1.5-.28-2.13-.84a3.18 3.18 0 0 1-.83-2.16v-12.84c0-.88.27-1.6.83-2.16a3.12 3.12 0 0 1 2.13-.84h63.76a2.85 2.85 0 0 1 2.96 3v12.84a2.85 2.85 0 0 1-2.96 3h-21.09v62.16c0 .8-.28 1.52-.83 2.16a2.9 2.9 0 0 1-2.14.84h-15.64ZM1118.54 321.26c-.64 0-1.23-.24-1.78-.72a2.7 2.7 0 0 1-.71-1.8c0-.48.04-.84.11-1.08l27.86-77.04c.23-.96.75-1.77 1.54-2.4a4.73 4.73 0 0 1 3.08-.97h17.54c1.26 0 2.29.32 3.08.97.79.63 1.3 1.44 1.54 2.4l27.73 77.04.24 1.08c0 .64-.28 1.24-.83 1.8a2.4 2.4 0 0 1-1.78.72h-14.58c-1.89 0-3.16-.84-3.79-2.52l-4.62-12.24h-31.64l-4.51 12.24c-.63 1.68-1.93 2.52-3.91 2.52h-14.57Zm49.89-32.04-11.02-31.68-11.02 31.68h22.04ZM1241.1 322.46c-11.14 0-19.87-2.76-26.19-8.28-6.24-5.52-9.36-13.84-9.36-24.96v-48.96c0-.88.27-1.6.83-2.16a3.12 3.12 0 0 1 2.13-.84h15.29c.87 0 1.58.28 2.13.84.63.56.95 1.28.95 2.16v48.84c0 5.2 1.18 9.12 3.55 11.76 2.45 2.56 5.97 3.84 10.55 3.84 4.51 0 7.98-1.32 10.43-3.96 2.45-2.64 3.68-6.52 3.68-11.64v-48.84c0-.88.27-1.6.83-2.16a3.12 3.12 0 0 1 2.13-.84h15.41c.86 0 1.58.28 2.13.84.55.56.83 1.28.83 2.16v48.96c0 11.12-3.16 19.44-9.48 24.96-6.24 5.52-14.86 8.28-25.84 8.28ZM1295.1 321.26c-.79 0-1.5-.28-2.14-.84a3.23 3.23 0 0 1-.83-2.16v-78c0-.88.28-1.6.83-2.16a3.16 3.16 0 0 1 2.14-.84h32.23c10.35 0 18.41 2.4 24.18 7.2 5.85 4.72 8.77 11.44 8.77 20.16 0 5.6-1.3 10.36-3.91 14.28a25.04 25.04 0 0 1-10.79 9l16.24 29.52a3 3 0 0 1 .36 1.32c0 .64-.28 1.24-.83 1.8-.48.48-1.03.72-1.66.72h-15.77a4.93 4.93 0 0 1-4.85-3.24l-13.52-26.4h-12.08v26.64c0 .88-.32 1.6-.95 2.16-.55.56-1.27.84-2.13.84h-15.29Zm32-46.68c3.63 0 6.4-.88 8.29-2.64 1.9-1.84 2.85-4.36 2.85-7.56 0-3.2-.95-5.72-2.85-7.56-1.82-1.92-4.58-2.88-8.29-2.88h-13.63v20.64h13.63ZM1377.04 321.26c-.79 0-1.5-.28-2.14-.84a3.22 3.22 0 0 1-.82-2.16v-78c0-.88.27-1.6.82-2.16a3.16 3.16 0 0 1 2.14-.84h15.88c.87 0 1.58.28 2.13.84.63.56.95 1.28.95 2.16v78c0 .88-.32 1.6-.95 2.16-.55.56-1.26.84-2.13.84h-15.88Z" fill="#F7F7F7"/><path d="M960.08 249.84a16.1 16.1 0 0 1-16 16.2c-8.84 0-16-7.25-16-16.2a16.1 16.1 0 0 1 16-16.2c8.83 0 16 7.26 16 16.2Z" fill="#FFC131"/><ellipse cx="917.18" cy="296.23" rx="16" ry="16.2" transform="rotate(180 917.18 296.23)" fill="#24C8DB"/><path fill-rule="evenodd" clip-rule="evenodd" d="M977.23 301.79a60.66 60.66 0 0 1-21.07 8.68 43.87 43.87 0 0 0 2.04-19.58 42.77 42.77 0 0 0 9.18-4.54 43.32 43.32 0 0 0 15.83-18.66 43.96 43.96 0 0 0-6.99-46.64 42.85 42.85 0 0 0-20.58-13.06 42.4 42.4 0 0 0-24.29.35 42.88 42.88 0 0 0-22.14 16.18 70.59 70.59 0 0 0-23.43 6.89 62.09 62.09 0 0 1 11.43-21.22 61.04 61.04 0 0 1 28.76-19.4 60.35 60.35 0 0 1 34.56-.5 60.98 60.98 0 0 1 29.3 18.58 62.46 62.46 0 0 1 9.94 66.38 61.62 61.62 0 0 1-22.54 26.54Zm-90.72-59.1 14.97 1.86c.36-2.94 1-5.82 1.93-8.6a60.67 60.67 0 0 0-16.9 6.74Z" fill="#FFC131"/><path fill-rule="evenodd" clip-rule="evenodd" d="M883.92 244.29a60.65 60.65 0 0 1 21.24-8.72 43.84 43.84 0 0 0-2.38 19.68 43.31 43.31 0 0 0-24.83 23.13 43.97 43.97 0 0 0-3.3 24.37 43.7 43.7 0 0 0 10.28 22.27 42.85 42.85 0 0 0 20.58 13.06 42.41 42.41 0 0 0 24.29-.35 42.9 42.9 0 0 0 22.16-16.19 70.6 70.6 0 0 0 23.43-6.93 62.08 62.08 0 0 1-11.45 21.27 61.03 61.03 0 0 1-28.76 19.41 60.34 60.34 0 0 1-34.56.5 60.97 60.97 0 0 1-29.29-18.58 62.18 62.18 0 0 1-14.64-31.7 62.55 62.55 0 0 1 4.7-34.68 61.63 61.63 0 0 1 22.53-26.54Zm90.64 59.09Zm-12.86 5.65a60.38 60.38 0 0 0 0 0Z" fill="#24C8DB"/><path d="M1572.88.4c0 133.53-108.96 241.77-243.38 241.77-134.42 0-243.39-108.24-243.39-241.77 0-133.53 108.97-241.78 243.39-241.78S1572.88-133.13 1572.88.4ZM1164.89 679.6c0 133.53-108.97 241.78-243.39 241.78S678.11 813.13 678.11 679.61c0-133.53 108.97-241.78 243.4-241.78 134.41 0 243.38 108.25 243.38 241.78Z" stroke="#fff" stroke-opacity=".2" stroke-width="2"/><path d="M736.05-217.25C316-131.99 0 237.15 0 679.61 0 1185.15 412.57 1595 921.5 1595c413.5 0 763.38-270.54 880.06-643.15a1073.13 1073.13 0 0 1-352.52 102.62c-117.67 163.12-310.11 269.41-527.54 269.41-358.2 0-648.57-288.45-648.57-644.28 0-277.93 177.16-514.75 425.43-605.12a642.53 642.53 0 0 1 37.69-291.73Z" stroke="#fff" stroke-opacity=".2" stroke-width="2"/><path clip-rule="evenodd" d="M1514.95 897.25C1934.99 811.99 2251 442.85 2251 .4c0-505.56-412.57-915.4-921.5-915.4-413.5 0-763.38 270.54-880.06 643.15a1073.19 1073.19 0 0 1 352.52-102.62c117.67-163.12 310.11-269.4 527.54-269.4 358.19 0 648.57 288.44 648.57 644.27 0 277.93-177.17 514.75-425.43 605.12a642.54 642.54 0 0 1-37.69 291.73Z" stroke="#fff" stroke-opacity=".2" stroke-width="2"/><path d="M808.36 474c-.27 0-.48-.07-.63-.22a.93.93 0 0 1-.22-.63v-24.16c0-.27.08-.48.22-.63a.78.78 0 0 1 .63-.26h10.14c1.85 0 3.35.3 4.51.92 1.19.6 2.05 1.41 2.6 2.45.56 1.03.85 2.2.85 3.47 0 1.02-.18 1.9-.52 2.63a5.55 5.55 0 0 1-2.67 2.81 6.76 6.76 0 0 1 2.56 2.3 6.4 6.4 0 0 1 1.14 3.85c0 1.35-.3 2.6-.92 3.73a6.9 6.9 0 0 1-2.78 2.74c-1.2.67-2.71 1-4.51 1h-10.4Zm2.78-3h7.14c1.6 0 2.83-.43 3.7-1.3a4.33 4.33 0 0 0 1.3-3.17 4.3 4.3 0 0 0-1.3-3.22c-.87-.87-2.1-1.3-3.7-1.3h-7.14v9Zm0-11.95h6.8c1.58 0 2.78-.36 3.6-1.07a3.85 3.85 0 0 0 1.22-3c0-1.26-.41-2.22-1.23-2.88-.81-.67-2-1-3.58-1h-6.81v7.95ZM838.92 474.37a7.48 7.48 0 0 1-4.03-1.04 6.8 6.8 0 0 1-2.48-2.96c-.57-1.25-.85-2.7-.85-4.32V455.6a.8.8 0 0 1 .22-.6.86.86 0 0 1 .63-.25h1.85c.25 0 .44.09.6.26.16.15.25.34.25.6v10.24c0 3.68 1.6 5.51 4.81 5.51a4.8 4.8 0 0 0 3.66-1.44 5.67 5.67 0 0 0 1.41-4.07v-10.25a.8.8 0 0 1 .22-.6.86.86 0 0 1 .63-.25h1.81c.28 0 .49.09.63.26a.8.8 0 0 1 .23.6v17.53c0 .25-.08.46-.23.63-.14.15-.35.22-.63.22h-1.7a.94.94 0 0 1-.63-.22.93.93 0 0 1-.22-.63v-1.63a7.6 7.6 0 0 1-2.44 2.07c-.94.52-2.18.78-3.74.78ZM854.85 474a.94.94 0 0 1-.63-.22.93.93 0 0 1-.22-.63V455.6a.8.8 0 0 1 .22-.6.86.86 0 0 1 .63-.25h1.78c.25 0 .44.09.6.26a.8.8 0 0 1 .21.6v17.53c0 .25-.07.46-.22.63a.8.8 0 0 1-.6.22h-1.77Zm-.3-22.83a.94.94 0 0 1-.62-.22.93.93 0 0 1-.22-.63v-2a.8.8 0 0 1 .22-.59.86.86 0 0 1 .63-.26h2.33c.25 0 .44.09.59.26.17.15.26.34.26.6v1.99c0 .25-.09.46-.26.63a.8.8 0 0 1-.6.22h-2.32ZM863.85 474a.94.94 0 0 1-.63-.22.93.93 0 0 1-.22-.63v-24.57a.8.8 0 0 1 .22-.6.86.86 0 0 1 .63-.25h1.74c.27 0 .48.09.63.26a.8.8 0 0 1 .22.6v24.56c0 .25-.07.46-.22.63-.15.15-.36.22-.63.22h-1.74ZM878.99 474.37a8.12 8.12 0 0 1-3.51-.7 7.1 7.1 0 0 1-2.45-1.96 9.34 9.34 0 0 1-1.4-2.85c-.3-1.06-.47-2.19-.52-3.37a18.4 18.4 0 0 1 .52-5.55 9.34 9.34 0 0 1 1.4-2.85 6.58 6.58 0 0 1 2.45-1.96c.98-.5 2.15-.74 3.51-.74 1.46 0 2.66.26 3.63.78a7.64 7.64 0 0 1 2.36 1.92v-8.5a.8.8 0 0 1 .23-.6.86.86 0 0 1 .63-.26h1.77c.25 0 .44.09.6.26.17.15.25.34.25.6v24.56c0 .25-.08.46-.26.63a.8.8 0 0 1-.59.22h-1.66c-.28 0-.49-.07-.63-.22a.93.93 0 0 1-.23-.63v-1.55a7.72 7.72 0 0 1-2.4 2 7.9 7.9 0 0 1-3.7.77Zm.78-3c1.23 0 2.22-.28 2.96-.85a5.28 5.28 0 0 0 1.66-2.14c.37-.9.57-1.8.6-2.7a22.7 22.7 0 0 0 0-2.85 6.36 6.36 0 0 0-.63-2.56 4.76 4.76 0 0 0-4.59-2.89 4.8 4.8 0 0 0-3 .86 4.47 4.47 0 0 0-1.6 2.18c-.31.89-.5 1.85-.55 2.89-.02.71-.02 1.43 0 2.14.05 1.04.24 2.01.56 2.93a4.7 4.7 0 0 0 1.59 2.18c.74.54 1.74.81 3 .81ZM909.7 474.37a10.8 10.8 0 0 1-3.56-.52 8.14 8.14 0 0 1-2.4-1.26 6.5 6.5 0 0 1-1.4-1.48c-.3-.49-.47-.88-.49-1.18-.02-.27.06-.48.26-.63.2-.15.4-.22.6-.22h1.62a.6.6 0 0 1 .33.07c.1.03.22.13.37.3.32.34.68.69 1.08 1.04.39.34.87.62 1.44.85.59.22 1.32.33 2.18.33 1.26 0 2.3-.24 3.1-.7.82-.5 1.23-1.21 1.23-2.15 0-.62-.17-1.11-.52-1.48-.32-.37-.91-.7-1.77-1-.84-.3-2-.6-3.48-.92a13.3 13.3 0 0 1-3.52-1.26 4.84 4.84 0 0 1-1.85-1.81 5.16 5.16 0 0 1-.55-2.41c0-.91.27-1.79.81-2.63a6.01 6.01 0 0 1 2.37-2.1 8.64 8.64 0 0 1 3.96-.82c1.28 0 2.38.16 3.3.48a7.25 7.25 0 0 1 3.58 2.63c.3.47.46.86.48 1.18a.74.74 0 0 1-.22.63.88.88 0 0 1-.6.22h-1.55a.85.85 0 0 1-.44-.1l-.3-.27a7.78 7.78 0 0 0-.88-.96 3.47 3.47 0 0 0-1.3-.78 5.34 5.34 0 0 0-2.07-.33c-1.23 0-2.16.26-2.78.78a2.46 2.46 0 0 0-.92 1.96c0 .47.14.89.4 1.26.28.37.8.7 1.56 1 .76.3 1.9.61 3.4.96 1.63.32 2.92.75 3.85 1.3.94.54 1.6 1.16 2 1.88.4.71.6 1.54.6 2.48a4.8 4.8 0 0 1-.93 2.85 6.07 6.07 0 0 1-2.67 2.07c-1.16.5-2.6.74-4.33.74ZM922.75 474a.93.93 0 0 1-.63-.22.93.93 0 0 1-.22-.63V455.6a.8.8 0 0 1 .22-.6.85.85 0 0 1 .63-.25h1.66c.25 0 .45.09.6.26.17.15.25.34.25.6v1.29a6.42 6.42 0 0 1 5.25-2.52c2.8-.02 4.77 1.11 5.93 3.4a6.3 6.3 0 0 1 2.48-2.48 7.35 7.35 0 0 1 3.7-.92c1.28 0 2.44.3 3.47.89 1.06.59 1.9 1.49 2.48 2.7.62 1.18.93 2.67.93 4.48v10.69c0 .25-.09.46-.26.63a.8.8 0 0 1-.6.22h-1.73a.93.93 0 0 1-.63-.22.93.93 0 0 1-.22-.63v-10.36a7.4 7.4 0 0 0-.6-3.26 3.5 3.5 0 0 0-1.59-1.66 4.96 4.96 0 0 0-2.18-.48c-.64 0-1.3.16-1.96.48-.67.32-1.22.87-1.66 1.66a7 7 0 0 0-.63 3.26v10.36c0 .25-.1.46-.26.63a.8.8 0 0 1-.6.22h-1.73a.93.93 0 0 1-.63-.22.93.93 0 0 1-.23-.63v-10.36c0-1.38-.2-2.47-.62-3.26a3.68 3.68 0 0 0-1.63-1.66 4.5 4.5 0 0 0-4.07 0c-.67.32-1.22.87-1.67 1.66a6.9 6.9 0 0 0-.63 3.22v10.4c0 .25-.08.46-.25.63a.8.8 0 0 1-.6.22h-1.77ZM960.14 474.37a7.58 7.58 0 0 1-3.37-.74 6.5 6.5 0 0 1-2.44-2 4.69 4.69 0 0 1-.92-2.85c0-1.7.69-3.06 2.07-4.07a11.9 11.9 0 0 1 5.4-2l5.51-.77v-1.07c0-1.19-.34-2.11-1.03-2.78-.67-.67-1.76-1-3.3-1-1.1 0-2 .22-2.7.67a3.6 3.6 0 0 0-1.4 1.7c-.15.37-.4.55-.78.55h-1.66c-.27 0-.48-.07-.63-.22a.99.99 0 0 1-.19-.59c0-.37.14-.83.41-1.37.3-.54.74-1.07 1.33-1.59.6-.52 1.35-.95 2.26-1.3a9.28 9.28 0 0 1 3.4-.55c1.48 0 2.73.2 3.74.6a5.71 5.71 0 0 1 3.63 3.7c.27.8.4 1.63.4 2.47v11.99c0 .25-.08.46-.26.63a.8.8 0 0 1-.59.22h-1.7c-.27 0-.48-.07-.63-.22a.93.93 0 0 1-.22-.63v-1.6c-.32.45-.75.9-1.3 1.34-.54.42-1.22.78-2.03 1.07-.81.27-1.81.41-3 .41Zm.78-2.77c1.01 0 1.94-.22 2.77-.63a4.61 4.61 0 0 0 1.96-2.04c.5-.91.75-2.06.75-3.44v-1.04l-4.3.63a9.7 9.7 0 0 0-3.96 1.26c-.88.57-1.33 1.3-1.33 2.18 0 .7.2 1.27.6 1.74.41.45.93.78 1.55 1 .64.22 1.3.34 1.96.34ZM976.08 474a.93.93 0 0 1-.63-.22.93.93 0 0 1-.22-.63v-24.57a.8.8 0 0 1 .22-.6.85.85 0 0 1 .63-.25h1.74c.27 0 .48.09.63.26a.8.8 0 0 1 .22.6v24.56c0 .25-.07.46-.22.63-.15.15-.36.22-.63.22h-1.74ZM985.08 474a.93.93 0 0 1-.63-.22.93.93 0 0 1-.22-.63v-24.57a.8.8 0 0 1 .22-.6.85.85 0 0 1 .63-.25h1.74c.27 0 .48.09.63.26a.8.8 0 0 1 .22.6v24.56c0 .25-.08.46-.22.63-.15.15-.36.22-.63.22h-1.74ZM1000.84 474.37c-2.54 0-4.56-.78-6.06-2.33-1.5-1.58-2.33-3.73-2.48-6.44a16.3 16.3 0 0 1 0-2.48c.1-1.75.5-3.28 1.22-4.59a7.63 7.63 0 0 1 2.92-3.07 8.75 8.75 0 0 1 4.4-1.07c1.88 0 3.45.4 4.7 1.18a7.5 7.5 0 0 1 2.93 3.37c.66 1.46 1 3.16 1 5.1v.64a.8.8 0 0 1-.26.63.82.82 0 0 1-.6.22h-12.8V465.86c.05 1.01.27 1.96.67 2.85.4.86.96 1.56 1.7 2.1.74.55 1.63.82 2.66.82a5.32 5.32 0 0 0 4.41-2.07c.22-.32.39-.5.52-.56.12-.07.32-.1.59-.1h1.77c.25 0 .45.07.6.22.17.12.24.3.22.55-.03.37-.22.83-.59 1.37-.37.52-.9 1.04-1.6 1.55-.69.52-1.52.95-2.51 1.3-.99.32-2.12.48-3.41.48Zm-5.03-11.4h10.14v-.1c0-1.12-.21-2.1-.63-2.97a4.74 4.74 0 0 0-4.48-2.81c-1.06 0-1.97.26-2.73.78-.74.5-1.31 1.17-1.7 2.03-.4.87-.6 1.85-.6 2.96v.11ZM1014.74 474a.93.93 0 0 1-.63-.22.92.92 0 0 1-.22-.63v-17.5c0-.25.07-.46.22-.63a.85.85 0 0 1 .63-.26h1.7c.25 0 .46.09.63.26.17.17.26.38.26.63v1.63a4.65 4.65 0 0 1 2.04-1.9c.86-.41 1.9-.62 3.1-.62h1.48c.25 0 .45.09.6.26.14.15.22.34.22.6v1.5c0 .25-.08.45-.22.6a.82.82 0 0 1-.6.22h-2.22c-1.33 0-2.38.4-3.14 1.19a4.23 4.23 0 0 0-1.15 3.14v10.88c0 .25-.08.46-.26.63a.93.93 0 0 1-.63.22h-1.81ZM1025.7 476.77a.59.59 0 0 1-.48-.22.78.78 0 0 1-.11-.55l.85-5.3c.05-.29.15-.54.29-.73a.9.9 0 0 1 .74-.34h2.48a.5.5 0 0 1 .41.19c.12.12.19.27.19.44 0 .2-.05.4-.15.6l-1.93 5.06c-.1.25-.23.45-.4.6-.15.17-.37.25-.67.25h-1.22ZM1046.33 474a.93.93 0 0 1-.63-.22.92.92 0 0 1-.22-.63v-15.43h-3.15a.96.96 0 0 1-.63-.22.97.97 0 0 1-.22-.63v-1.26c0-.25.08-.44.22-.6a.88.88 0 0 1 .63-.25h3.15v-1.85a8 8 0 0 1 .63-3.3 4.58 4.58 0 0 1 2-2.21 7.68 7.68 0 0 1 3.73-.78h2.22c.25 0 .45.09.59.26a.8.8 0 0 1 .23.6v1.25c0 .25-.08.45-.23.63a.78.78 0 0 1-.59.22h-2.14c-1.16 0-1.95.3-2.37.93-.42.59-.63 1.45-.63 2.59v1.66h4.77c.25 0 .45.09.59.26a.8.8 0 0 1 .23.6v1.25c0 .25-.08.45-.23.63a.78.78 0 0 1-.59.22h-4.77v15.43c0 .25-.09.46-.26.63a.8.8 0 0 1-.59.22h-1.74ZM1062.9 474.37a7.56 7.56 0 0 1-3.36-.74 6.57 6.57 0 0 1-2.45-2 4.73 4.73 0 0 1-.92-2.85c0-1.7.69-3.06 2.07-4.07a11.9 11.9 0 0 1 5.4-2l5.52-.77v-1.07c0-1.19-.35-2.11-1.04-2.78-.67-.67-1.76-1-3.29-1-1.11 0-2.01.22-2.7.67a3.58 3.58 0 0 0-1.41 1.7c-.15.37-.41.55-.78.55h-1.66a.86.86 0 0 1-.63-.22 1.02 1.02 0 0 1-.19-.59c0-.37.14-.83.41-1.37.3-.54.74-1.07 1.33-1.59.6-.52 1.35-.95 2.26-1.3a9.28 9.28 0 0 1 3.4-.55c1.48 0 2.73.2 3.74.6a5.74 5.74 0 0 1 3.63 3.7c.27.8.4 1.63.4 2.47v11.99c0 .25-.08.46-.25.63a.82.82 0 0 1-.6.22h-1.7a.86.86 0 0 1-.63-.22.92.92 0 0 1-.22-.63v-1.6c-.32.45-.75.9-1.29 1.34-.55.42-1.23.78-2.04 1.07-.81.27-1.81.41-3 .41Zm.78-2.77c1.01 0 1.94-.22 2.78-.63a4.66 4.66 0 0 0 1.96-2.04c.49-.91.74-2.06.74-3.44v-1.04l-4.3.63a9.61 9.61 0 0 0-3.95 1.26c-.89.57-1.34 1.3-1.34 2.18 0 .7.2 1.27.6 1.74.41.45.93.78 1.55 1 .64.22 1.29.34 1.96.34ZM1084.61 474.37c-1.38 0-2.56-.17-3.55-.52a7.97 7.97 0 0 1-2.4-1.26 6.42 6.42 0 0 1-1.41-1.48c-.3-.49-.46-.88-.48-1.18a.64.64 0 0 1 .26-.63c.2-.15.39-.22.59-.22h1.63c.15 0 .26.02.33.07.1.03.22.13.37.3.32.34.68.69 1.07 1.04.4.34.88.62 1.45.85.59.22 1.32.33 2.18.33 1.26 0 2.29-.24 3.11-.7.81-.5 1.22-1.21 1.22-2.15 0-.62-.17-1.11-.52-1.48-.32-.37-.91-.7-1.77-1-.84-.3-2-.6-3.48-.92a13.43 13.43 0 0 1-3.52-1.26 4.86 4.86 0 0 1-1.85-1.81 5.15 5.15 0 0 1-.55-2.41c0-.91.27-1.79.81-2.63a5.97 5.97 0 0 1 2.37-2.1 8.63 8.63 0 0 1 3.96-.82c1.28 0 2.38.16 3.29.48a7.28 7.28 0 0 1 3.59 2.63c.3.47.46.86.48 1.18a.73.73 0 0 1-.22.63.88.88 0 0 1-.59.22h-1.56a.83.83 0 0 1-.44-.1l-.3-.27a7.68 7.68 0 0 0-.88-.96 3.6 3.6 0 0 0-1.3-.78 5.35 5.35 0 0 0-2.07-.33c-1.23 0-2.16.26-2.78.78a2.47 2.47 0 0 0-.92 1.96c0 .47.13.89.41 1.26.27.37.78.7 1.55 1 .76.3 1.9.61 3.4.96 1.63.32 2.91.75 3.85 1.3.94.54 1.6 1.16 2 1.88a5.1 5.1 0 0 1-.33 5.33 6.1 6.1 0 0 1-2.67 2.07c-1.16.5-2.6.74-4.33.74ZM1104.29 474c-1.38 0-2.5-.26-3.37-.78a4.69 4.69 0 0 1-1.88-2.25c-.4-1-.6-2.15-.6-3.48v-9.77h-2.88a.93.93 0 0 1-.63-.22.92.92 0 0 1-.22-.63v-1.26a.8.8 0 0 1 .22-.6.85.85 0 0 1 .63-.25h2.88v-6.18a.84.84 0 0 1 .85-.85h1.74c.25 0 .45.09.6.26.17.15.25.34.25.6v6.17h4.59c.25 0 .45.09.59.26.18.15.26.34.26.6v1.25c0 .25-.08.45-.26.63a.78.78 0 0 1-.59.22h-4.59v9.5c0 1.17.2 2.08.6 2.75.39.66 1.09 1 2.11 1h2.25c.25 0 .45.08.59.25.18.15.26.35.26.6v1.33c0 .25-.08.46-.26.63a.78.78 0 0 1-.59.22h-2.55ZM1118.89 474.37c-2.54 0-4.56-.78-6.07-2.33-1.5-1.58-2.33-3.73-2.48-6.44a20.3 20.3 0 0 1 0-2.48c.1-1.75.51-3.28 1.22-4.59a7.64 7.64 0 0 1 2.93-3.07 8.75 8.75 0 0 1 4.4-1.07c1.88 0 3.44.4 4.7 1.18a7.49 7.49 0 0 1 2.92 3.37c.67 1.46 1 3.16 1 5.1v.64c0 .27-.08.48-.26.63a.8.8 0 0 1-.59.22h-12.8V465.86a8 8 0 0 0 .66 2.85c.4.86.97 1.56 1.71 2.1.74.55 1.62.82 2.66.82a5.32 5.32 0 0 0 4.4-2.07c.23-.32.4-.5.52-.56.13-.07.32-.1.59-.1h1.78a.8.8 0 0 1 .59.22c.17.12.25.3.22.55-.02.37-.22.83-.59 1.37-.37.52-.9 1.04-1.59 1.55a9.23 9.23 0 0 1-5.92 1.78Zm-5.03-11.4H1124v-.1c0-1.12-.21-2.1-.63-2.97a4.74 4.74 0 0 0-4.48-2.8c-1.06 0-1.97.25-2.74.77a4.8 4.8 0 0 0-1.7 2.03 7.12 7.12 0 0 0-.59 2.96v.11ZM1132.79 474a.93.93 0 0 1-.63-.22.92.92 0 0 1-.22-.63v-17.5c0-.25.07-.46.22-.63a.85.85 0 0 1 .63-.26h1.7c.25 0 .46.09.63.26.17.17.26.38.26.63v1.63a4.68 4.68 0 0 1 2.03-1.9c.87-.41 1.9-.62 3.11-.62h1.48c.25 0 .44.09.59.26a.8.8 0 0 1 .22.6v1.5a.8.8 0 0 1-.22.6.8.8 0 0 1-.59.22h-2.22a4.2 4.2 0 0 0-3.15 1.19 4.27 4.27 0 0 0-1.14 3.14v10.88c0 .25-.09.46-.26.63a.93.93 0 0 1-.63.22h-1.81ZM1143.75 476.77a.62.62 0 0 1-.49-.22.9.9 0 0 1-.11-.55l.85-5.3c.05-.29.15-.54.3-.73a.88.88 0 0 1 .74-.34h2.48a.5.5 0 0 1 .41.19c.12.12.18.27.18.44 0 .2-.05.4-.15.6l-1.92 5.06c-.1.25-.24.45-.41.6-.15.17-.37.25-.66.25h-1.22ZM1167.65 474.37a7.56 7.56 0 0 1-3.36-.74 6.49 6.49 0 0 1-2.45-2 4.73 4.73 0 0 1-.92-2.85c0-1.7.69-3.06 2.07-4.07a11.9 11.9 0 0 1 5.4-2l5.52-.77v-1.07c0-1.19-.35-2.11-1.04-2.78-.67-.67-1.76-1-3.29-1-1.11 0-2.01.22-2.7.67a3.58 3.58 0 0 0-1.41 1.7c-.15.37-.41.55-.78.55h-1.66a.86.86 0 0 1-.63-.22 1.02 1.02 0 0 1-.19-.59c0-.37.14-.83.41-1.37.3-.54.74-1.07 1.33-1.59a7.35 7.35 0 0 1 2.26-1.3 9.28 9.28 0 0 1 3.4-.55c1.48 0 2.73.2 3.74.6a5.74 5.74 0 0 1 3.63 3.7c.27.8.4 1.63.4 2.47v11.99c0 .25-.08.46-.26.63a.78.78 0 0 1-.59.22h-1.7a.86.86 0 0 1-.63-.22.92.92 0 0 1-.22-.63v-1.6c-.32.45-.75.9-1.3 1.34a7.5 7.5 0 0 1-2.03 1.07c-.81.27-1.81.41-3 .41Zm.78-2.77c1.01 0 1.94-.22 2.77-.63a4.63 4.63 0 0 0 1.97-2.04c.49-.91.74-2.06.74-3.44v-1.04l-4.3.63a9.72 9.72 0 0 0-3.96 1.26c-.88.57-1.33 1.3-1.33 2.18 0 .7.2 1.27.59 1.74.42.45.94.78 1.56 1 .64.22 1.29.34 1.96.34ZM1183.55 474a.96.96 0 0 1-.63-.22.97.97 0 0 1-.22-.63V455.6c0-.25.08-.44.22-.6a.88.88 0 0 1 .63-.25h1.74c.25 0 .45.09.59.26.18.15.26.34.26.6v1.62a7.43 7.43 0 0 1 2.41-2.04 7.76 7.76 0 0 1 3.77-.81c1.61 0 2.96.36 4.07 1.07a6.42 6.42 0 0 1 2.56 2.93c.56 1.23.85 2.67.85 4.32v10.44c0 .25-.08.46-.23.63a.78.78 0 0 1-.59.22h-1.85a.96.96 0 0 1-.63-.22.97.97 0 0 1-.22-.63V462.9c0-1.73-.42-3.07-1.26-4.03-.84-.99-2.07-1.48-3.7-1.48-1.53 0-2.76.49-3.7 1.48-.91.96-1.37 2.3-1.37 4.03v10.25c0 .25-.08.46-.25.63a.82.82 0 0 1-.6.22h-1.85ZM1212.17 474.37a8.06 8.06 0 0 1-3.51-.7 7.17 7.17 0 0 1-2.45-1.96 9.44 9.44 0 0 1-1.4-2.85 14.6 14.6 0 0 1-.52-3.37c-.02-.4-.04-.76-.04-1.11 0-.34.02-.71.04-1.11.05-1.16.22-2.27.52-3.33a9.44 9.44 0 0 1 1.4-2.85 6.64 6.64 0 0 1 2.45-1.96c.98-.5 2.15-.74 3.51-.74 1.46 0 2.66.26 3.63.78a7.56 7.56 0 0 1 2.36 1.92v-8.5a.8.8 0 0 1 .23-.6.85.85 0 0 1 .63-.26h1.77c.25 0 .45.09.59.26.18.15.26.34.26.6v24.56c0 .25-.08.46-.26.63a.78.78 0 0 1-.59.22h-1.66a.86.86 0 0 1-.63-.22.92.92 0 0 1-.22-.63v-1.55a7.75 7.75 0 0 1-2.41 2c-.99.51-2.22.77-3.7.77Zm.78-3c1.23 0 2.22-.28 2.96-.85a5.27 5.27 0 0 0 1.66-2.14 7.4 7.4 0 0 0 .59-2.7 19.84 19.84 0 0 0 0-2.85 6.37 6.37 0 0 0-.62-2.56 4.75 4.75 0 0 0-4.59-2.89c-1.26 0-2.26.3-3 .86a4.47 4.47 0 0 0-1.59 2.18 9.87 9.87 0 0 0-.56 2.89c-.02.71-.02 1.43 0 2.14.05 1.04.24 2.01.56 2.93a4.7 4.7 0 0 0 1.59 2.18c.74.54 1.74.81 3 .81ZM1237.07 474a.93.93 0 0 1-.63-.22.92.92 0 0 1-.22-.63V455.6a.8.8 0 0 1 .22-.6.85.85 0 0 1 .63-.25h1.66c.25 0 .45.09.59.26.18.15.26.34.26.6v1.29a6.42 6.42 0 0 1 5.26-2.52c2.78-.02 4.76 1.11 5.92 3.4a6.23 6.23 0 0 1 2.48-2.48 7.32 7.32 0 0 1 3.7-.92c1.28 0 2.44.3 3.47.89a6 6 0 0 1 2.48 2.7 9.6 9.6 0 0 1 .93 4.48v10.69c0 .25-.09.46-.26.63a.8.8 0 0 1-.59.22h-1.74a.93.93 0 0 1-.63-.22.92.92 0 0 1-.22-.63v-10.36a7.3 7.3 0 0 0-.6-3.26 3.45 3.45 0 0 0-1.59-1.66 4.93 4.93 0 0 0-2.18-.48 4.5 4.5 0 0 0-1.96.48c-.67.32-1.22.87-1.67 1.66a7 7 0 0 0-.62 3.26v10.36c0 .25-.09.46-.26.63a.82.82 0 0 1-.6.22h-1.73a.93.93 0 0 1-.63-.22.93.93 0 0 1-.23-.63v-10.36c0-1.38-.21-2.47-.62-3.26a3.71 3.71 0 0 0-1.63-1.66 4.47 4.47 0 0 0-4.07 0c-.67.32-1.22.87-1.67 1.66a6.9 6.9 0 0 0-.63 3.22v10.4c0 .25-.08.46-.26.63a.78.78 0 0 1-.59.22h-1.77ZM1276.98 474.37a9.4 9.4 0 0 1-4.7-1.07 7.27 7.27 0 0 1-2.89-2.96 10.56 10.56 0 0 1-1.11-4.37 34.53 34.53 0 0 1 0-3.18c.08-1.65.45-3.1 1.11-4.37a7.53 7.53 0 0 1 2.92-2.96 9.35 9.35 0 0 1 4.67-1.07c1.85 0 3.4.36 4.66 1.07a7.18 7.18 0 0 1 2.88 2.96 9.7 9.7 0 0 1 1.15 4.37c.03.4.04.92.04 1.59 0 .64-.01 1.17-.04 1.6a10.26 10.26 0 0 1-1.11 4.36 7.24 7.24 0 0 1-2.88 2.96 9.42 9.42 0 0 1-4.7 1.07Zm0-2.85a4.8 4.8 0 0 0 3.66-1.44c.91-.99 1.41-2.42 1.48-4.3a25.49 25.49 0 0 0 0-2.8c-.07-1.88-.57-3.3-1.48-4.26a4.74 4.74 0 0 0-3.66-1.48c-1.53 0-2.77.5-3.7 1.48-.92.96-1.4 2.38-1.45 4.25a26.95 26.95 0 0 0 0 2.82c.05 1.87.53 3.3 1.45 4.29a4.92 4.92 0 0 0 3.7 1.44ZM1291.19 474a.96.96 0 0 1-.63-.22.97.97 0 0 1-.22-.63v-17.5c0-.25.08-.46.22-.63a.88.88 0 0 1 .63-.26h1.71c.24 0 .45.09.62.26.18.17.26.38.26.63v1.63a4.7 4.7 0 0 1 2.04-1.9c.86-.41 1.9-.62 3.11-.62h1.48c.24 0 .44.09.59.26a.8.8 0 0 1 .22.6v1.5a.8.8 0 0 1-.22.6.8.8 0 0 1-.59.22h-2.22c-1.34 0-2.38.4-3.15 1.19a4.27 4.27 0 0 0-1.15 3.14v10.88c0 .25-.08.46-.25.63a.96.96 0 0 1-.63.22h-1.82ZM1311.7 474.37c-2.55 0-4.57-.78-6.07-2.33-1.51-1.58-2.33-3.73-2.48-6.44-.03-.32-.04-.73-.04-1.22 0-.52.01-.94.04-1.26.1-1.75.5-3.28 1.22-4.59a7.61 7.61 0 0 1 2.92-3.07 8.78 8.78 0 0 1 4.41-1.07c1.87 0 3.44.4 4.69 1.18a7.5 7.5 0 0 1 2.93 3.37c.66 1.46 1 3.16 1 5.1v.64a.8.8 0 0 1-.26.63.8.8 0 0 1-.59.22h-12.81V465.86a7.8 7.8 0 0 0 .67 2.85c.39.86.96 1.56 1.7 2.1.74.55 1.63.82 2.67.82a5.39 5.39 0 0 0 4.4-2.07c.22-.32.39-.5.52-.56.12-.07.32-.1.59-.1h1.77c.25 0 .45.07.6.22.17.12.24.3.22.55-.03.37-.22.83-.59 1.37-.37.52-.9 1.04-1.59 1.55a9.38 9.38 0 0 1-5.92 1.78Zm-5.04-11.4h10.14v-.1c0-1.12-.21-2.1-.63-2.97a4.73 4.73 0 0 0-4.47-2.81 4.73 4.73 0 0 0-4.44 2.81c-.4.87-.6 1.85-.6 2.96v.11ZM1340.47 474.37c-1.38 0-2.57-.17-3.55-.52a8.16 8.16 0 0 1-2.41-1.26 6.57 6.57 0 0 1-1.4-1.48c-.3-.49-.46-.88-.48-1.18a.66.66 0 0 1 .25-.63 1 1 0 0 1 .6-.22h1.62c.15 0 .26.02.34.07.1.03.22.13.37.3.32.34.68.69 1.07 1.04a5 5 0 0 0 3.63 1.18c1.25 0 2.29-.24 3.1-.7.82-.5 1.23-1.21 1.23-2.15a2.1 2.1 0 0 0-.52-1.48c-.32-.37-.91-.7-1.78-1-.84-.3-2-.6-3.48-.92a13.21 13.21 0 0 1-3.51-1.26 4.86 4.86 0 0 1-1.85-1.81 5.16 5.16 0 0 1-.56-2.41c0-.91.28-1.79.82-2.63a5.97 5.97 0 0 1 2.37-2.1 8.62 8.62 0 0 1 3.95-.82c1.29 0 2.39.16 3.3.48a7.22 7.22 0 0 1 3.59 2.63c.29.47.45.86.48 1.18a.76.76 0 0 1-.22.63.9.9 0 0 1-.6.22h-1.55a.83.83 0 0 1-.44-.1l-.3-.27a7.8 7.8 0 0 0-.89-.96 3.47 3.47 0 0 0-1.29-.78 5.37 5.37 0 0 0-2.08-.33c-1.23 0-2.15.26-2.77.78a2.45 2.45 0 0 0-.93 1.96c0 .47.14.89.41 1.26.27.37.79.7 1.56 1 .76.3 1.9.61 3.4.96 1.63.32 2.91.75 3.85 1.3.94.54 1.6 1.16 2 1.88a5.1 5.1 0 0 1-.34 5.33 6.07 6.07 0 0 1-2.66 2.07c-1.16.5-2.6.74-4.33.74ZM1360.33 474.37c-2.54 0-4.56-.78-6.07-2.33-1.5-1.58-2.33-3.73-2.48-6.44a20.3 20.3 0 0 1 0-2.48c.1-1.75.51-3.28 1.22-4.59a7.64 7.64 0 0 1 2.93-3.07 8.75 8.75 0 0 1 4.4-1.07c1.87 0 3.44.4 4.7 1.18a7.49 7.49 0 0 1 2.92 3.37c.67 1.46 1 3.16 1 5.1v.64a.8.8 0 0 1-.26.63.8.8 0 0 1-.59.22h-12.8V465.86a8 8 0 0 0 .66 2.85c.4.86.97 1.56 1.71 2.1.74.55 1.62.82 2.66.82a5.32 5.32 0 0 0 4.4-2.07c.23-.32.4-.5.52-.56.12-.07.32-.1.59-.1h1.78a.8.8 0 0 1 .59.22c.17.12.25.3.22.55-.02.37-.22.83-.59 1.37-.37.52-.9 1.04-1.59 1.55a9.23 9.23 0 0 1-5.92 1.78Zm-5.03-11.4h10.14v-.1c0-1.12-.21-2.1-.63-2.97a4.74 4.74 0 0 0-4.48-2.8c-1.06 0-1.97.25-2.74.77a4.73 4.73 0 0 0-1.7 2.03 7.12 7.12 0 0 0-.59 2.96v.11ZM1381.15 474.37a9.79 9.79 0 0 1-4.56-1 7.29 7.29 0 0 1-2.92-2.92 10.18 10.18 0 0 1-1.11-4.59 26.98 26.98 0 0 1 0-2.96c.05-1.78.42-3.3 1.11-4.55a7 7 0 0 1 2.92-2.92 9.5 9.5 0 0 1 4.56-1.04c1.43 0 2.65.2 3.66.6 1.03.39 1.89.9 2.55 1.5a6.12 6.12 0 0 1 1.48 2c.35.72.53 1.4.56 2.04.02.25-.05.45-.23.6a.92.92 0 0 1-.62.22h-1.78a.9.9 0 0 1-.56-.15 2.29 2.29 0 0 1-.37-.6 4.87 4.87 0 0 0-1.81-2.55 5.14 5.14 0 0 0-2.85-.74c-1.48 0-2.69.46-3.62 1.37-.92.92-1.41 2.38-1.48 4.4-.03.9-.03 1.76 0 2.6.07 2.04.56 3.52 1.48 4.44a5.03 5.03 0 0 0 3.62 1.33c1.14 0 2.09-.25 2.85-.74a4.87 4.87 0 0 0 1.81-2.56c.13-.27.25-.45.37-.55.13-.12.31-.19.56-.19h1.78c.24 0 .45.08.62.23.18.14.25.34.23.59a5.5 5.5 0 0 1-1.3 3.25 7.1 7.1 0 0 1-3.92 2.52c-.89.25-1.9.37-3.03.37ZM1400.97 474.37a7.47 7.47 0 0 1-4.03-1.04 6.72 6.72 0 0 1-2.48-2.96c-.57-1.25-.85-2.7-.85-4.32V455.6a.8.8 0 0 1 .22-.6.85.85 0 0 1 .63-.25h1.85c.24 0 .44.09.59.26.17.15.26.34.26.6v10.24c0 3.68 1.6 5.51 4.81 5.51a4.8 4.8 0 0 0 3.66-1.44 5.66 5.66 0 0 0 1.41-4.07v-10.25a.8.8 0 0 1 .22-.6.85.85 0 0 1 .63-.25h1.81c.27 0 .48.09.63.26a.8.8 0 0 1 .22.6v17.53c0 .25-.07.46-.22.63a.86.86 0 0 1-.63.22h-1.7a.93.93 0 0 1-.63-.22.92.92 0 0 1-.22-.63v-1.63a7.66 7.66 0 0 1-2.44 2.07c-.94.52-2.19.78-3.74.78ZM1416.9 474a.93.93 0 0 1-.63-.22.92.92 0 0 1-.22-.63v-17.5c0-.25.07-.46.22-.63a.85.85 0 0 1 .63-.26h1.7c.25 0 .46.09.63.26.17.17.26.38.26.63v1.63a4.68 4.68 0 0 1 2.03-1.9c.87-.41 1.9-.62 3.11-.62h1.48c.25 0 .45.09.59.26a.8.8 0 0 1 .23.6v1.5a.8.8 0 0 1-.23.6.78.78 0 0 1-.59.22h-2.22c-1.33 0-2.38.4-3.14 1.19a4.23 4.23 0 0 0-1.15 3.14v10.88c0 .25-.09.46-.26.63a.93.93 0 0 1-.63.22h-1.81ZM1437.4 474.37c-2.54 0-4.56-.78-6.07-2.33-1.5-1.58-2.33-3.73-2.48-6.44a20.3 20.3 0 0 1 0-2.48c.1-1.75.51-3.28 1.23-4.59a7.61 7.61 0 0 1 2.92-3.07 8.75 8.75 0 0 1 4.4-1.07c1.88 0 3.44.4 4.7 1.18a7.49 7.49 0 0 1 2.92 3.37c.67 1.46 1 3.16 1 5.1v.64c0 .27-.08.48-.26.63a.78.78 0 0 1-.59.22h-12.8V465.86a7.8 7.8 0 0 0 .67 2.85c.39.86.96 1.56 1.7 2.1.74.55 1.63.82 2.66.82a5.32 5.32 0 0 0 4.4-2.07c.23-.32.4-.5.52-.56.13-.07.32-.1.59-.1h1.78a.8.8 0 0 1 .59.22c.18.12.25.3.22.55-.02.37-.22.83-.59 1.37-.37.52-.9 1.04-1.59 1.55a9.3 9.3 0 0 1-5.92 1.78Zm-5.03-11.4h10.14v-.1c0-1.12-.21-2.1-.63-2.97a4.74 4.74 0 0 0-4.48-2.8c-1.06 0-1.97.25-2.74.77a4.8 4.8 0 0 0-1.7 2.03 7.12 7.12 0 0 0-.59 2.96v.11ZM780.89 518.37a8.12 8.12 0 0 1-3.51-.7 7.09 7.09 0 0 1-2.45-1.96 9.3 9.3 0 0 1-1.4-2.85c-.3-1.06-.47-2.19-.52-3.37a17.61 17.61 0 0 1 .52-5.55 9.3 9.3 0 0 1 1.4-2.85 6.57 6.57 0 0 1 2.45-1.96c.98-.5 2.15-.74 3.51-.74 1.46 0 2.66.26 3.63.78a7.65 7.65 0 0 1 2.36 1.92v-8.5a.8.8 0 0 1 .23-.6.85.85 0 0 1 .63-.26h1.77c.25 0 .45.09.6.26.16.15.25.34.25.6v24.56c0 .25-.09.46-.26.63a.8.8 0 0 1-.59.22h-1.66c-.28 0-.49-.07-.63-.22a.93.93 0 0 1-.23-.63v-1.55a7.74 7.74 0 0 1-2.4 2 7.9 7.9 0 0 1-3.7.77Zm.78-3c1.23 0 2.22-.28 2.96-.85a5.28 5.28 0 0 0 1.66-2.14 7.5 7.5 0 0 0 .6-2.7 23.5 23.5 0 0 0 0-2.85 6.4 6.4 0 0 0-.63-2.56 4.76 4.76 0 0 0-4.59-2.89 4.8 4.8 0 0 0-3 .86 4.47 4.47 0 0 0-1.6 2.18 9.8 9.8 0 0 0-.55 2.89c-.02.71-.02 1.43 0 2.14.05 1.04.24 2.01.56 2.93a4.7 4.7 0 0 0 1.59 2.18c.74.54 1.74.81 3 .81ZM803.52 518.37c-2.54 0-4.56-.78-6.06-2.33-1.5-1.58-2.34-3.73-2.48-6.44a16.3 16.3 0 0 1 0-2.48c.1-1.75.5-3.28 1.22-4.59a7.63 7.63 0 0 1 2.92-3.07 8.76 8.76 0 0 1 4.4-1.07c1.88 0 3.45.4 4.7 1.18a7.52 7.52 0 0 1 2.93 3.37c.66 1.46 1 3.16 1 5.1v.64c0 .27-.1.48-.26.63a.8.8 0 0 1-.6.22h-12.8V509.86c.05 1.01.27 1.96.67 2.85.4.86.96 1.56 1.7 2.1.74.55 1.63.82 2.66.82a5.33 5.33 0 0 0 4.4-2.07c.23-.32.4-.5.53-.55.12-.08.31-.12.59-.12h1.77a.8.8 0 0 1 .6.23c.17.12.24.3.22.55-.03.37-.23.83-.6 1.37-.37.52-.9 1.04-1.59 1.55a9.27 9.27 0 0 1-5.92 1.78Zm-5.03-11.4h10.14v-.1a6.7 6.7 0 0 0-.63-2.97 4.77 4.77 0 0 0-4.48-2.81c-1.06 0-1.97.26-2.73.78-.74.5-1.31 1.17-1.7 2.03-.4.87-.6 1.85-.6 2.96v.11ZM823.23 518.37a10.8 10.8 0 0 1-3.55-.52 8.12 8.12 0 0 1-2.4-1.26 6.46 6.46 0 0 1-1.41-1.48c-.3-.49-.46-.88-.49-1.18-.02-.27.07-.48.26-.63.2-.15.4-.22.6-.22h1.62a.6.6 0 0 1 .34.07c.1.03.22.13.37.3.32.34.67.69 1.07 1.03.4.35.88.63 1.44.86.6.22 1.32.33 2.19.33 1.25 0 2.29-.24 3.1-.7.82-.5 1.23-1.21 1.23-2.15 0-.62-.18-1.11-.52-1.48-.32-.37-.92-.7-1.78-1-.84-.3-2-.6-3.48-.92a13.3 13.3 0 0 1-3.51-1.26 4.83 4.83 0 0 1-1.85-1.81 5.16 5.16 0 0 1-.56-2.41c0-.91.27-1.79.82-2.63a6 6 0 0 1 2.37-2.1 8.63 8.63 0 0 1 3.95-.82c1.29 0 2.38.16 3.3.48a7.26 7.26 0 0 1 3.59 2.63c.3.47.45.86.48 1.18a.75.75 0 0 1-.23.63.88.88 0 0 1-.59.22h-1.55a.85.85 0 0 1-.44-.1l-.3-.27a7.94 7.94 0 0 0-.89-.96 3.48 3.48 0 0 0-1.3-.78 5.35 5.35 0 0 0-2.07-.33c-1.23 0-2.15.26-2.77.78a2.45 2.45 0 0 0-.93 1.96c0 .47.14.89.41 1.26.27.37.79.7 1.55 1 .77.3 1.9.61 3.4.96 1.64.32 2.92.75 3.86 1.3.93.54 1.6 1.16 2 1.88a5.06 5.06 0 0 1-.34 5.33 6.07 6.07 0 0 1-2.66 2.07c-1.16.5-2.6.74-4.33.74ZM836.32 518a.93.93 0 0 1-.63-.22.93.93 0 0 1-.22-.63v-24.57a.8.8 0 0 1 .22-.6.86.86 0 0 1 .63-.25h1.74c.24 0 .44.09.59.26.17.15.26.34.26.6v12.87l7.29-6.07c.3-.25.51-.4.66-.48.18-.1.45-.15.82-.15h1.96a.75.75 0 0 1 .77.78c0 .1-.03.2-.1.33a.9.9 0 0 1-.34.37l-8.55 7.1 9.48 9.22c.3.24.44.47.44.66a.75.75 0 0 1-.78.78h-1.92a2.2 2.2 0 0 1-.81-.11 4.1 4.1 0 0 1-.67-.52l-8.25-7.88v7.66c0 .25-.09.46-.26.63a.8.8 0 0 1-.6.22h-1.73ZM862.02 518c-1.38 0-2.5-.26-3.37-.78a4.71 4.71 0 0 1-1.88-2.25c-.4-1-.6-2.15-.6-3.48v-9.77h-2.88a.93.93 0 0 1-.63-.22.93.93 0 0 1-.22-.63v-1.26a.8.8 0 0 1 .22-.6.86.86 0 0 1 .63-.25h2.88v-6.18a.8.8 0 0 1 .23-.6.86.86 0 0 1 .62-.25h1.74c.25 0 .45.09.6.26.17.15.25.34.25.6v6.17h4.6c.24 0 .44.09.58.26.18.15.26.34.26.6v1.25c0 .25-.08.45-.26.63a.8.8 0 0 1-.59.22h-4.59v9.5c0 1.17.2 2.08.6 2.75.4.66 1.1 1 2.1 1h2.26c.25 0 .45.08.6.25.17.15.25.35.25.6v1.33c0 .25-.08.46-.26.63a.8.8 0 0 1-.59.22h-2.55ZM876.84 518.37a9.4 9.4 0 0 1-4.7-1.07 7.25 7.25 0 0 1-2.88-2.96 10.38 10.38 0 0 1-1.11-4.37 28.65 28.65 0 0 1 0-3.18c.07-1.65.44-3.1 1.1-4.37a7.5 7.5 0 0 1 2.93-2.96 9.31 9.31 0 0 1 4.66-1.07c1.85 0 3.4.36 4.66 1.07a7.25 7.25 0 0 1 2.89 2.96 9.86 9.86 0 0 1 1.15 4.37 26.55 26.55 0 0 1 0 3.18 10.38 10.38 0 0 1-1.11 4.37 7.25 7.25 0 0 1-2.89 2.96 9.4 9.4 0 0 1-4.7 1.07Zm0-2.85a4.8 4.8 0 0 0 3.66-1.44c.92-.99 1.41-2.42 1.49-4.3a21.62 21.62 0 0 0 0-2.8c-.08-1.88-.57-3.3-1.49-4.26a4.75 4.75 0 0 0-3.66-1.48c-1.53 0-2.76.5-3.7 1.48-.91.96-1.4 2.38-1.44 4.25a22.36 22.36 0 0 0 0 2.82c.05 1.87.53 3.3 1.44 4.29a4.93 4.93 0 0 0 3.7 1.44ZM891.1 525.03a.86.86 0 0 1-.63-.26.8.8 0 0 1-.23-.6v-24.56a.8.8 0 0 1 .23-.6.86.86 0 0 1 .63-.25h1.7c.24 0 .44.09.59.26.17.15.26.34.26.6v1.62a7.1 7.1 0 0 1 2.37-2.04 7.6 7.6 0 0 1 3.7-.81c1.38 0 2.55.23 3.51.7a6.4 6.4 0 0 1 2.4 1.93 8.47 8.47 0 0 1 1.45 2.77c.32 1.04.5 2.15.52 3.33a19.97 19.97 0 0 1 0 2.52c-.03 1.16-.2 2.27-.52 3.33a8.47 8.47 0 0 1-1.44 2.77 6.91 6.91 0 0 1-2.4 1.93c-.97.47-2.14.7-3.52.7a7.73 7.73 0 0 1-3.63-.78 7.87 7.87 0 0 1-2.37-2v8.59a.8.8 0 0 1-.22.6.78.78 0 0 1-.63.25h-1.77Zm7.84-9.66c1.28 0 2.28-.27 3-.81a4.7 4.7 0 0 0 1.59-2.18c.32-.92.5-1.9.55-2.93.03-.71.03-1.43 0-2.14a9.8 9.8 0 0 0-.55-2.89 4.47 4.47 0 0 0-1.6-2.18 4.71 4.71 0 0 0-3-.85c-1.2 0-2.19.28-2.95.85-.74.56-1.3 1.3-1.67 2.18a8.36 8.36 0 0 0-.59 2.66 23.5 23.5 0 0 0 0 2.85c.03.87.22 1.72.6 2.56a4.86 4.86 0 0 0 4.63 2.89ZM926.68 518.37a7.58 7.58 0 0 1-3.36-.74 6.5 6.5 0 0 1-2.45-2 4.69 4.69 0 0 1-.92-2.85c0-1.7.69-3.06 2.07-4.07a11.9 11.9 0 0 1 5.4-2l5.52-.77v-1.07c0-1.19-.35-2.11-1.04-2.78-.67-.67-1.76-1-3.3-1-1.1 0-2 .22-2.7.67a3.6 3.6 0 0 0-1.4 1.7c-.15.37-.4.55-.78.55h-1.66c-.27 0-.48-.07-.63-.22a.99.99 0 0 1-.19-.59c0-.37.14-.83.41-1.37.3-.54.74-1.07 1.33-1.59.6-.52 1.35-.95 2.26-1.3a9.28 9.28 0 0 1 3.4-.55c1.48 0 2.73.2 3.74.6a5.71 5.71 0 0 1 3.63 3.7c.27.8.4 1.63.4 2.47v11.99c0 .25-.08.46-.25.63a.8.8 0 0 1-.6.22h-1.7c-.27 0-.48-.07-.63-.22a.93.93 0 0 1-.22-.63v-1.6c-.32.45-.75.9-1.3 1.34-.54.42-1.22.78-2.03 1.07-.81.27-1.81.41-3 .41Zm.78-2.77c1.01 0 1.94-.22 2.77-.63a4.61 4.61 0 0 0 1.97-2.04c.49-.91.74-2.06.74-3.44v-1.04l-4.3.63a9.7 9.7 0 0 0-3.96 1.26c-.88.57-1.33 1.3-1.33 2.18 0 .7.2 1.27.6 1.74.41.45.93.78 1.55 1 .64.22 1.3.34 1.96.34ZM942.62 525.03a.85.85 0 0 1-.63-.26.8.8 0 0 1-.22-.6v-24.56a.8.8 0 0 1 .22-.6.85.85 0 0 1 .63-.25h1.7c.25 0 .45.09.6.26.17.15.25.34.25.6v1.62a7.1 7.1 0 0 1 2.37-2.04 7.6 7.6 0 0 1 3.7-.81c1.38 0 2.55.23 3.52.7a6.42 6.42 0 0 1 2.4 1.93 8.51 8.51 0 0 1 1.45 2.77c.31 1.04.49 2.15.51 3.33a20.75 20.75 0 0 1 0 2.52 12.4 12.4 0 0 1-.51 3.33 8.51 8.51 0 0 1-1.45 2.77 6.93 6.93 0 0 1-2.4 1.93c-.97.47-2.14.7-3.52.7a7.72 7.72 0 0 1-3.62-.78 7.85 7.85 0 0 1-2.37-2v8.59a.8.8 0 0 1-.22.6.78.78 0 0 1-.63.25h-1.78Zm7.85-9.66c1.28 0 2.28-.27 3-.81a4.7 4.7 0 0 0 1.58-2.18c.32-.92.5-1.9.56-2.93.02-.71.02-1.43 0-2.14-.05-1.04-.24-2-.56-2.89a4.47 4.47 0 0 0-1.59-2.18 4.71 4.71 0 0 0-3-.85c-1.2 0-2.2.28-2.96.85-.74.56-1.29 1.3-1.66 2.18a8.31 8.31 0 0 0-.6 2.66 22.7 22.7 0 0 0 0 2.85c.03.87.23 1.72.6 2.56a4.86 4.86 0 0 0 4.63 2.89ZM964.66 525.03a.85.85 0 0 1-.63-.26.8.8 0 0 1-.22-.6v-24.56a.8.8 0 0 1 .22-.6.85.85 0 0 1 .63-.25h1.7c.25 0 .45.09.6.26.17.15.25.34.25.6v1.62a7.1 7.1 0 0 1 2.37-2.04 7.6 7.6 0 0 1 3.7-.81c1.38 0 2.56.23 3.52.7a6.42 6.42 0 0 1 2.4 1.93 8.51 8.51 0 0 1 1.45 2.77c.32 1.04.49 2.15.51 3.33a20.75 20.75 0 0 1 0 2.52 12.4 12.4 0 0 1-.51 3.33 8.51 8.51 0 0 1-1.45 2.77 6.93 6.93 0 0 1-2.4 1.93c-.96.47-2.14.7-3.52.7a7.72 7.72 0 0 1-3.62-.78 7.85 7.85 0 0 1-2.37-2v8.59a.8.8 0 0 1-.22.6.78.78 0 0 1-.63.25h-1.78Zm7.85-9.66c1.28 0 2.28-.27 3-.81a4.7 4.7 0 0 0 1.58-2.18c.32-.92.5-1.9.56-2.93.02-.71.02-1.43 0-2.14-.05-1.04-.24-2-.56-2.89a4.47 4.47 0 0 0-1.59-2.18 4.71 4.71 0 0 0-3-.85c-1.2 0-2.19.28-2.95.85-.74.56-1.3 1.3-1.67 2.18a8.31 8.31 0 0 0-.6 2.66 22.7 22.7 0 0 0 0 2.85c.03.87.23 1.72.6 2.56a4.86 4.86 0 0 0 4.63 2.89ZM986.7 518a.93.93 0 0 1-.63-.22.93.93 0 0 1-.22-.63v-24.57a.8.8 0 0 1 .22-.6.85.85 0 0 1 .63-.25h1.74c.27 0 .48.09.63.26a.8.8 0 0 1 .22.6v24.56c0 .25-.07.46-.22.63-.15.15-.36.22-.63.22h-1.74ZM996.02 518a.93.93 0 0 1-.63-.22.93.93 0 0 1-.22-.63V499.6a.8.8 0 0 1 .23-.6.86.86 0 0 1 .62-.25h1.78c.25 0 .44.09.6.26a.8.8 0 0 1 .21.6v17.53c0 .25-.07.46-.22.63a.8.8 0 0 1-.59.22h-1.78Zm-.3-22.83a.93.93 0 0 1-.62-.22.93.93 0 0 1-.22-.63v-2a.8.8 0 0 1 .22-.59.86.86 0 0 1 .63-.26h2.33c.25 0 .44.09.6.26.16.15.25.34.25.6v1.99c0 .25-.09.46-.26.63a.8.8 0 0 1-.6.22h-2.32ZM1011.98 518.37a9.74 9.74 0 0 1-4.55-1 7.25 7.25 0 0 1-2.93-2.92 10.18 10.18 0 0 1-1.11-4.59 28.76 28.76 0 0 1 0-2.96c.05-1.78.42-3.3 1.11-4.55a6.96 6.96 0 0 1 2.93-2.92 9.45 9.45 0 0 1 4.55-1.04c1.43 0 2.65.2 3.66.6 1.04.39 1.89.9 2.55 1.5a6.12 6.12 0 0 1 1.48 2c.35.72.53 1.4.56 2.04a.66.66 0 0 1-.22.6.96.96 0 0 1-.63.22h-1.78c-.25 0-.43-.05-.55-.15a1.85 1.85 0 0 1-.37-.6 4.93 4.93 0 0 0-1.82-2.55 5.14 5.14 0 0 0-2.85-.74c-1.48 0-2.69.46-3.62 1.37-.92.92-1.41 2.38-1.48 4.4-.03.9-.03 1.76 0 2.6.07 2.04.56 3.52 1.48 4.44a5.03 5.03 0 0 0 3.62 1.33c1.14 0 2.09-.25 2.85-.74a4.93 4.93 0 0 0 1.82-2.56c.12-.27.24-.45.37-.55.12-.12.3-.19.55-.19h1.78c.24 0 .45.08.63.23.17.14.24.34.22.59a5.5 5.5 0 0 1-1.3 3.25 7.1 7.1 0 0 1-3.92 2.52c-.89.25-1.9.37-3.03.37ZM1029.99 518.37a7.57 7.57 0 0 1-3.37-.74 6.46 6.46 0 0 1-2.44-2 4.67 4.67 0 0 1-.93-2.85c0-1.7.69-3.06 2.07-4.07a11.98 11.98 0 0 1 5.41-2l5.51-.77v-1.07c0-1.19-.35-2.11-1.04-2.78-.66-.67-1.76-1-3.29-1-1.11 0-2.01.22-2.7.67a3.58 3.58 0 0 0-1.41 1.7c-.14.37-.4.55-.77.55h-1.67a.86.86 0 0 1-.63-.22 1.01 1.01 0 0 1-.18-.59c0-.37.13-.83.4-1.37a5.9 5.9 0 0 1 1.34-1.59 7.3 7.3 0 0 1 2.25-1.3 9.33 9.33 0 0 1 3.41-.55c1.48 0 2.72.2 3.73.6a5.6 5.6 0 0 1 3.63 3.7c.27.8.41 1.63.41 2.47v11.99c0 .25-.09.46-.26.63a.8.8 0 0 1-.59.22h-1.71c-.27 0-.48-.07-.62-.22a.93.93 0 0 1-.23-.63v-1.6c-.32.45-.75.9-1.29 1.34-.54.42-1.22.78-2.04 1.07-.81.27-1.81.41-2.99.41Zm.77-2.77c1.01 0 1.94-.22 2.78-.63a4.6 4.6 0 0 0 1.96-2.04c.49-.91.74-2.06.74-3.44v-1.04l-4.29.63a9.72 9.72 0 0 0-3.96 1.26c-.89.57-1.33 1.3-1.33 2.18 0 .7.19 1.27.59 1.74.42.45.94.78 1.55 1 .64.22 1.3.34 1.96.34ZM1052.37 518a6.49 6.49 0 0 1-3.37-.78 4.76 4.76 0 0 1-1.89-2.25 9.43 9.43 0 0 1-.59-3.48v-9.77h-2.89a.92.92 0 0 1-.62-.22.93.93 0 0 1-.23-.63v-1.26a.84.84 0 0 1 .85-.85h2.89v-6.18a.8.8 0 0 1 .22-.6.88.88 0 0 1 .63-.25h1.74c.25 0 .44.09.59.26.18.15.26.34.26.6v6.17h4.59c.25 0 .44.09.59.26.17.15.26.34.26.6v1.25c0 .25-.09.45-.26.63a.8.8 0 0 1-.59.22h-4.59v9.5c0 1.17.2 2.08.59 2.75.4.66 1.1 1 2.11 1h2.26c.25 0 .44.08.59.25.17.15.26.35.26.6v1.33c0 .25-.09.46-.26.63a.8.8 0 0 1-.59.22h-2.55ZM1060.16 518a.93.93 0 0 1-.63-.22.92.92 0 0 1-.22-.63V499.6a.8.8 0 0 1 .22-.6.85.85 0 0 1 .63-.25h1.78c.24 0 .44.09.59.26a.8.8 0 0 1 .22.6v17.53c0 .25-.07.46-.22.63a.8.8 0 0 1-.59.22h-1.78Zm-.3-22.83a.96.96 0 0 1-.63-.22.97.97 0 0 1-.22-.63v-2c0-.25.08-.44.22-.59a.88.88 0 0 1 .63-.26h2.33c.25 0 .45.09.6.26.17.15.26.34.26.6v1.99c0 .25-.09.46-.26.63a.82.82 0 0 1-.6.22h-2.33ZM1076.22 518.37a9.42 9.42 0 0 1-4.7-1.07 7.24 7.24 0 0 1-2.88-2.96 10.26 10.26 0 0 1-1.11-4.37c-.03-.42-.04-.95-.04-1.59 0-.67.01-1.2.04-1.6.07-1.64.44-3.1 1.11-4.36a7.47 7.47 0 0 1 2.92-2.96 9.31 9.31 0 0 1 4.66-1.07c1.85 0 3.41.36 4.67 1.07a7.24 7.24 0 0 1 2.88 2.96 9.96 9.96 0 0 1 1.15 4.37 31 31 0 0 1 0 3.18 10.56 10.56 0 0 1-1.11 4.37 7.27 7.27 0 0 1-2.89 2.96 9.4 9.4 0 0 1-4.7 1.07Zm0-2.85c1.53 0 2.75-.48 3.67-1.44.91-.99 1.4-2.42 1.48-4.3a26.95 26.95 0 0 0 0-2.8c-.08-1.88-.57-3.3-1.48-4.26a4.77 4.77 0 0 0-3.67-1.48c-1.53 0-2.76.5-3.7 1.48-.91.96-1.39 2.38-1.44 4.25a25.49 25.49 0 0 0 0 2.82c.05 1.87.53 3.3 1.44 4.29a4.94 4.94 0 0 0 3.7 1.44ZM1090.44 518a.93.93 0 0 1-.63-.22.92.92 0 0 1-.22-.63V499.6a.8.8 0 0 1 .22-.6.85.85 0 0 1 .63-.25h1.74c.24 0 .44.09.59.26.17.15.26.34.26.6v1.62a7.39 7.39 0 0 1 2.4-2.04 7.8 7.8 0 0 1 3.78-.81c1.6 0 2.96.36 4.07 1.07a6.46 6.46 0 0 1 2.55 2.93c.57 1.23.85 2.67.85 4.32v10.44c0 .25-.07.46-.22.63a.8.8 0 0 1-.59.22h-1.85a.93.93 0 0 1-.63-.22.92.92 0 0 1-.22-.63V506.9c0-1.73-.42-3.07-1.26-4.03-.84-.99-2.07-1.48-3.7-1.48-1.53 0-2.76.49-3.7 1.48-.91.96-1.37 2.3-1.37 4.03v10.25c0 .25-.09.46-.26.63a.8.8 0 0 1-.59.22h-1.85ZM1118.69 518.37c-1.38 0-2.57-.17-3.56-.52a8.22 8.22 0 0 1-2.4-1.26 6.42 6.42 0 0 1-1.41-1.48 3.2 3.2 0 0 1-.48-1.18c-.02-.27.06-.48.26-.63a1 1 0 0 1 .59-.22h1.63c.15 0 .26.02.33.07.1.03.23.13.37.3.33.34.68.69 1.08 1.03.39.35.87.63 1.44.86.59.22 1.32.33 2.18.33 1.26 0 2.3-.24 3.11-.7.82-.5 1.22-1.21 1.22-2.15 0-.62-.17-1.11-.52-1.48-.32-.37-.91-.7-1.77-1-.84-.3-2-.6-3.48-.92a13.21 13.21 0 0 1-3.51-1.26 4.8 4.8 0 0 1-1.85-1.81 5.16 5.16 0 0 1-.56-2.41c0-.91.27-1.79.81-2.63a6.1 6.1 0 0 1 2.37-2.1 8.63 8.63 0 0 1 3.96-.82c1.28 0 2.38.16 3.29.48a7.17 7.17 0 0 1 3.59 2.63c.3.47.46.86.48 1.18a.7.7 0 0 1-.22.63.88.88 0 0 1-.59.22h-1.55a.87.87 0 0 1-.45-.1 2.7 2.7 0 0 1-.29-.27 8.67 8.67 0 0 0-.89-.96 3.43 3.43 0 0 0-1.3-.78 5.29 5.29 0 0 0-2.07-.33c-1.23 0-2.16.26-2.77.78a2.45 2.45 0 0 0-.93 1.96c0 .47.14.89.41 1.26.27.37.79.7 1.55 1 .77.3 1.9.61 3.41.96 1.62.32 2.91.75 3.84 1.3a5.08 5.08 0 0 1 2 1.88c.4.71.59 1.54.59 2.48 0 1.03-.3 1.99-.92 2.85a6.07 6.07 0 0 1-2.66 2.07c-1.16.5-2.61.74-4.33.74ZM1144.2 518c-.32 0-.57-.07-.74-.22-.18-.17-.32-.4-.45-.7l-5.25-17.17a.99.99 0 0 1-.08-.37c0-.23.08-.41.23-.56a.82.82 0 0 1 .55-.22h1.63c.27 0 .48.07.63.22.15.15.24.29.29.4l4.11 13.96 4.4-13.8c.05-.18.15-.35.3-.52.17-.17.42-.26.74-.26h1.26c.32 0 .57.09.74.26.17.17.27.34.29.52l4.41 13.8 4.1-13.95a.98.98 0 0 1 .26-.4.86.86 0 0 1 .63-.23h1.63c.22 0 .41.07.56.22.14.15.22.33.22.56 0 .12-.03.24-.08.37l-5.25 17.17c-.07.3-.21.52-.41.7-.17.15-.43.22-.77.22h-1.45c-.32 0-.59-.07-.81-.22-.2-.17-.33-.4-.41-.7l-4.29-13.25-4.29 13.25c-.1.3-.25.52-.45.7-.19.15-.47.22-.81.22h-1.44ZM1169.61 518a.93.93 0 0 1-.63-.22.92.92 0 0 1-.22-.63V499.6a.8.8 0 0 1 .22-.6.85.85 0 0 1 .63-.25h1.77c.25 0 .45.09.59.26a.8.8 0 0 1 .23.6v17.53c0 .25-.08.46-.23.63a.78.78 0 0 1-.59.22h-1.77Zm-.3-22.83a.93.93 0 0 1-.63-.22.92.92 0 0 1-.22-.63v-2a.8.8 0 0 1 .22-.59.85.85 0 0 1 .63-.26h2.33c.25 0 .45.09.59.26.18.15.26.34.26.6v1.99c0 .25-.08.46-.26.63a.78.78 0 0 1-.59.22h-2.33ZM1185.23 518a6.49 6.49 0 0 1-3.37-.78 4.76 4.76 0 0 1-1.89-2.25 9.43 9.43 0 0 1-.59-3.48v-9.77h-2.88a.93.93 0 0 1-.63-.22.93.93 0 0 1-.23-.63v-1.26a.8.8 0 0 1 .23-.6.85.85 0 0 1 .63-.25h2.88v-6.18c0-.25.08-.44.22-.6a.88.88 0 0 1 .63-.25h1.74c.25 0 .45.09.59.26.18.15.26.34.26.6v6.17h4.59c.25 0 .44.09.59.26.17.15.26.34.26.6v1.25c0 .25-.09.45-.26.63a.8.8 0 0 1-.59.22h-4.59v9.5c0 1.17.2 2.08.59 2.75.4.66 1.1 1 2.11 1h2.26c.25 0 .44.08.59.25.17.15.26.35.26.6v1.33c0 .25-.09.46-.26.63a.8.8 0 0 1-.59.22h-2.55ZM1193.06 518a.93.93 0 0 1-.63-.22.92.92 0 0 1-.22-.63v-24.57a.8.8 0 0 1 .22-.6.85.85 0 0 1 .63-.25h1.85c.27 0 .48.09.63.26.14.15.22.34.22.6v8.61a7.75 7.75 0 0 1 2.44-2.03 7.66 7.66 0 0 1 3.66-.78c1.61 0 2.96.36 4.07 1.07a6.42 6.42 0 0 1 2.56 2.93c.59 1.23.88 2.67.88 4.32v10.44c0 .25-.07.46-.22.63a.86.86 0 0 1-.63.22h-1.85a.96.96 0 0 1-.63-.22.97.97 0 0 1-.22-.63V506.9c0-1.73-.42-3.07-1.26-4.03-.83-.99-2.07-1.48-3.7-1.48-1.53 0-2.76.49-3.7 1.48-.93.96-1.4 2.3-1.4 4.03v10.25c0 .25-.08.46-.22.63a.86.86 0 0 1-.63.22h-1.85ZM1229.15 518.37a7.6 7.6 0 0 1-3.37-.74 6.53 6.53 0 0 1-2.44-2 4.66 4.66 0 0 1-.92-2.85c0-1.7.69-3.06 2.07-4.07a11.9 11.9 0 0 1 5.4-2l5.51-.77v-1.07c0-1.19-.34-2.11-1.03-2.78-.67-.67-1.77-1-3.3-1-1.11 0-2.01.22-2.7.67a3.62 3.62 0 0 0-1.4 1.7c-.15.37-.41.55-.78.55h-1.66c-.28 0-.49-.07-.63-.22a.95.95 0 0 1-.19-.59c0-.37.14-.83.41-1.37.29-.54.74-1.07 1.33-1.59a7.23 7.23 0 0 1 2.26-1.3 9.24 9.24 0 0 1 3.4-.55c1.48 0 2.73.2 3.74.6a5.49 5.49 0 0 1 3.62 3.7c.28.8.41 1.63.41 2.47v11.99a.83.83 0 0 1-.85.85h-1.7a.86.86 0 0 1-.63-.22.92.92 0 0 1-.22-.63v-1.6c-.32.45-.75.9-1.3 1.34a7.5 7.5 0 0 1-2.03 1.07c-.82.27-1.82.41-3 .41Zm.78-2.77a6.1 6.1 0 0 0 2.77-.63 4.6 4.6 0 0 0 1.96-2.04c.5-.91.74-2.06.74-3.44v-1.04l-4.29.63a9.72 9.72 0 0 0-3.96 1.26c-.89.57-1.33 1.3-1.33 2.18 0 .7.2 1.27.59 1.74.42.45.94.78 1.56 1 .64.22 1.29.34 1.96.34ZM1257.51 518c-.32 0-.57-.07-.74-.22-.17-.17-.32-.4-.45-.7l-5.25-17.17a.97.97 0 0 1-.07-.37c0-.23.07-.41.22-.56a.84.84 0 0 1 .55-.22h1.63c.27 0 .48.07.63.22.15.15.25.29.3.4l4.1 13.96 4.41-13.8c.05-.18.14-.35.29-.52.18-.17.42-.26.74-.26h1.26c.32 0 .57.09.74.26a1 1 0 0 1 .3.52l4.4 13.8 4.11-13.95c.02-.12.11-.26.26-.4.14-.16.35-.23.62-.23h1.63c.22 0 .41.07.56.22.15.15.22.33.22.56 0 .12-.03.24-.07.37l-5.26 17.17c-.07.3-.21.52-.41.7-.17.15-.43.22-.77.22h-1.45c-.32 0-.59-.07-.81-.22-.2-.17-.33-.4-.41-.7l-4.29-13.25-4.29 13.25c-.1.3-.25.52-.44.7-.2.15-.47.22-.82.22h-1.44ZM1289.22 518.37c-2.54 0-4.56-.78-6.07-2.33-1.5-1.58-2.33-3.73-2.48-6.44a20.3 20.3 0 0 1 0-2.48c.1-1.75.51-3.28 1.22-4.59a7.64 7.64 0 0 1 2.93-3.07 8.75 8.75 0 0 1 4.4-1.07c1.88 0 3.44.4 4.7 1.18a7.49 7.49 0 0 1 2.92 3.37c.67 1.46 1 3.16 1 5.1v.64c0 .27-.08.48-.26.63a.8.8 0 0 1-.59.22h-12.8V509.86a8 8 0 0 0 .66 2.85c.4.86.97 1.56 1.71 2.1.74.55 1.62.82 2.66.82a5.32 5.32 0 0 0 4.4-2.07c.23-.32.4-.5.52-.55.13-.08.32-.12.59-.12h1.78a.8.8 0 0 1 .59.23c.17.12.25.3.22.55-.02.37-.22.83-.59 1.37-.37.52-.9 1.04-1.59 1.55a9.23 9.23 0 0 1-5.92 1.78Zm-5.03-11.4h10.14v-.1c0-1.12-.21-2.1-.63-2.97a4.74 4.74 0 0 0-4.48-2.8c-1.06 0-1.97.25-2.74.77a4.8 4.8 0 0 0-1.7 2.03 7.12 7.12 0 0 0-.59 2.96v.11ZM1311.77 518.37a7.91 7.91 0 0 1-3.7-.78 7.32 7.32 0 0 1-2.36-2v1.56c0 .25-.09.46-.26.63a.8.8 0 0 1-.59.22h-1.71a.96.96 0 0 1-.63-.22.97.97 0 0 1-.22-.63v-24.57c0-.25.08-.44.22-.6a.88.88 0 0 1 .63-.25h1.78c.27 0 .48.09.63.26a.8.8 0 0 1 .22.6v8.5a7.72 7.72 0 0 1 2.37-1.92 7.71 7.71 0 0 1 3.62-.78c1.39 0 2.56.25 3.52.74a6.17 6.17 0 0 1 2.4 1.96 8.7 8.7 0 0 1 1.45 2.85c.32 1.06.49 2.17.52 3.33a22.03 22.03 0 0 1 0 2.22c-.03 1.18-.2 2.3-.52 3.37a8.7 8.7 0 0 1-1.45 2.85 6.64 6.64 0 0 1-2.4 1.96c-.96.47-2.13.7-3.52.7Zm-.77-3c1.28 0 2.28-.27 2.99-.81a4.72 4.72 0 0 0 1.6-2.18c.32-.92.5-1.9.55-2.93.03-.71.03-1.43 0-2.14-.05-1.04-.23-2-.55-2.89a4.48 4.48 0 0 0-1.6-2.18 4.69 4.69 0 0 0-2.99-.85 4.88 4.88 0 0 0-4.63 2.88 6.86 6.86 0 0 0-.59 2.56 27.84 27.84 0 0 0 0 2.85c.05.9.25 1.8.59 2.7a5.3 5.3 0 0 0 1.67 2.14c.76.57 1.75.85 2.96.85ZM1335.43 518a.93.93 0 0 1-.63-.22.92.92 0 0 1-.22-.63v-15.43h-3.15a.96.96 0 0 1-.63-.22.97.97 0 0 1-.22-.63v-1.26c0-.25.08-.44.22-.6a.88.88 0 0 1 .63-.25h3.15v-1.85a8 8 0 0 1 .63-3.3 4.6 4.6 0 0 1 1.99-2.21 7.75 7.75 0 0 1 3.74-.78h2.22c.25 0 .45.09.59.26a.8.8 0 0 1 .23.6v1.25c0 .25-.08.45-.23.63a.78.78 0 0 1-.59.22h-2.14c-1.16 0-1.95.3-2.37.93-.42.59-.63 1.45-.63 2.59v1.66h4.77c.25 0 .45.09.59.26a.8.8 0 0 1 .23.6v1.25c0 .25-.08.45-.23.63a.78.78 0 0 1-.59.22h-4.77v15.43c0 .25-.09.46-.26.63a.8.8 0 0 1-.59.22h-1.74ZM1347.74 518a.93.93 0 0 1-.63-.22.92.92 0 0 1-.22-.63v-17.5c0-.25.07-.46.22-.63a.85.85 0 0 1 .63-.26h1.7c.25 0 .46.09.63.26.17.17.26.38.26.63v1.63a4.65 4.65 0 0 1 2.04-1.9c.86-.41 1.9-.62 3.1-.62h1.48c.25 0 .45.09.6.26.14.15.22.34.22.6v1.5c0 .25-.08.45-.22.6a.82.82 0 0 1-.6.22h-2.22c-1.33 0-2.38.4-3.14 1.19a4.23 4.23 0 0 0-1.15 3.14v10.88c0 .25-.08.46-.26.63a.93.93 0 0 1-.63.22h-1.81ZM1368.47 518.37a9.36 9.36 0 0 1-4.7-1.07 7.27 7.27 0 0 1-2.89-2.96 10.26 10.26 0 0 1-1.11-4.37 32.66 32.66 0 0 1 0-3.18c.07-1.65.44-3.1 1.11-4.37a7.53 7.53 0 0 1 2.92-2.96 9.35 9.35 0 0 1 4.67-1.07c1.85 0 3.4.36 4.66 1.07a7.18 7.18 0 0 1 2.88 2.96 9.82 9.82 0 0 1 1.15 4.37c.03.4.04.92.04 1.59 0 .64-.01 1.17-.04 1.6a10.26 10.26 0 0 1-1.11 4.36 7.27 7.27 0 0 1-2.89 2.96 9.35 9.35 0 0 1-4.69 1.07Zm0-2.85c1.52 0 2.75-.48 3.66-1.44.91-.99 1.4-2.42 1.48-4.3a25.49 25.49 0 0 0 0-2.8c-.08-1.88-.57-3.3-1.48-4.26a4.75 4.75 0 0 0-3.66-1.48c-1.53 0-2.77.5-3.7 1.48-.92.96-1.4 2.38-1.45 4.25a26.95 26.95 0 0 0 0 2.82c.05 1.87.53 3.3 1.45 4.29a4.92 4.92 0 0 0 3.7 1.44ZM1382.68 518a.94.94 0 0 1-.63-.22.92.92 0 0 1-.22-.63V499.6a.8.8 0 0 1 .22-.6.86.86 0 0 1 .63-.25h1.74c.25 0 .44.09.59.26.18.15.26.34.26.6v1.62a7.32 7.32 0 0 1 2.41-2.04 7.74 7.74 0 0 1 3.77-.81c1.6 0 2.96.36 4.07 1.07a6.34 6.34 0 0 1 2.55 2.93c.57 1.23.85 2.67.85 4.32v10.44c0 .25-.07.46-.22.63a.8.8 0 0 1-.59.22h-1.85a.93.93 0 0 1-.63-.22.92.92 0 0 1-.22-.63V506.9c0-1.73-.42-3.07-1.26-4.03-.84-.99-2.07-1.48-3.7-1.48-1.53 0-2.76.49-3.7 1.48-.91.96-1.37 2.3-1.37 4.03v10.25c0 .25-.08.46-.26.63a.78.78 0 0 1-.59.22h-1.85ZM1411.53 518a6.49 6.49 0 0 1-3.37-.78 4.76 4.76 0 0 1-1.89-2.25 9.43 9.43 0 0 1-.59-3.48v-9.77h-2.89a.92.92 0 0 1-.62-.22.93.93 0 0 1-.23-.63v-1.26a.84.84 0 0 1 .85-.85h2.89v-6.18a.8.8 0 0 1 .22-.6.88.88 0 0 1 .63-.25h1.74c.25 0 .44.09.59.26.18.15.26.34.26.6v6.17h4.59c.25 0 .44.09.59.26.17.15.26.34.26.6v1.25c0 .25-.09.45-.26.63a.8.8 0 0 1-.59.22h-4.59v9.5c0 1.17.2 2.08.59 2.75.4.66 1.1 1 2.11 1h2.26c.25 0 .44.08.59.25.17.15.26.35.26.6v1.33c0 .25-.09.46-.26.63a.8.8 0 0 1-.59.22h-2.55ZM1426.13 518.37c-2.54 0-4.57-.78-6.07-2.33-1.5-1.58-2.33-3.73-2.48-6.44a19.2 19.2 0 0 1 0-2.48c.1-1.75.51-3.28 1.22-4.59a7.64 7.64 0 0 1 2.93-3.07 8.72 8.72 0 0 1 4.4-1.07c1.87 0 3.44.4 4.7 1.18a7.55 7.55 0 0 1 2.92 3.37c.67 1.46 1 3.16 1 5.1v.64a.8.8 0 0 1-.26.63.8.8 0 0 1-.59.22h-12.8V509.86a8 8 0 0 0 .66 2.85c.4.86.96 1.56 1.7 2.1.74.55 1.63.82 2.67.82a5.32 5.32 0 0 0 4.4-2.07c.22-.32.4-.5.52-.55.12-.08.32-.12.59-.12h1.78a.8.8 0 0 1 .59.23c.17.12.25.3.22.55-.02.37-.22.83-.59 1.37-.37.52-.9 1.04-1.59 1.55a9.23 9.23 0 0 1-5.92 1.78Zm-5.03-11.4h10.13v-.1c0-1.12-.21-2.1-.62-2.97a4.74 4.74 0 0 0-4.48-2.8c-1.06 0-1.98.25-2.74.77a4.73 4.73 0 0 0-1.7 2.03c-.4.87-.59 1.85-.59 2.96v.11ZM1440.02 518a.92.92 0 0 1-.62-.22.93.93 0 0 1-.23-.63V499.6a.84.84 0 0 1 .85-.85h1.74c.25 0 .45.09.6.26.17.15.25.34.25.6v1.62a7.53 7.53 0 0 1 2.41-2.04 7.76 7.76 0 0 1 3.77-.81c1.61 0 2.96.36 4.07 1.07a6.42 6.42 0 0 1 2.56 2.93c.56 1.23.85 2.67.85 4.32v10.44c0 .25-.08.46-.22.63a.82.82 0 0 1-.6.22h-1.85a.96.96 0 0 1-.63-.22.97.97 0 0 1-.22-.63V506.9c0-1.73-.42-3.07-1.26-4.03-.83-.99-2.07-1.48-3.7-1.48-1.53 0-2.76.49-3.7 1.48-.91.96-1.36 2.3-1.36 4.03v10.25c0 .25-.09.46-.26.63a.82.82 0 0 1-.6.22h-1.85ZM1468.64 518.37a8.06 8.06 0 0 1-3.51-.7 7.17 7.17 0 0 1-2.45-1.96 9.44 9.44 0 0 1-1.4-2.85 14.6 14.6 0 0 1-.52-3.37c-.02-.4-.04-.76-.04-1.11 0-.34.02-.71.04-1.11.05-1.16.22-2.27.52-3.33a9.44 9.44 0 0 1 1.4-2.85 6.64 6.64 0 0 1 2.45-1.96c.98-.5 2.15-.74 3.51-.74 1.46 0 2.67.26 3.63.78a7.72 7.72 0 0 1 2.37 1.92v-8.5a.8.8 0 0 1 .22-.6.85.85 0 0 1 .63-.26h1.77c.25 0 .45.09.59.26.18.15.26.34.26.6v24.56c0 .25-.08.46-.26.63a.78.78 0 0 1-.59.22h-1.66a.86.86 0 0 1-.63-.22.92.92 0 0 1-.22-.63v-1.55a7.75 7.75 0 0 1-2.41 2c-.98.51-2.22.77-3.7.77Zm.78-3c1.23 0 2.22-.28 2.96-.85a5.27 5.27 0 0 0 1.66-2.14c.37-.9.57-1.8.6-2.7a28.3 28.3 0 0 0 0-2.85 6.55 6.55 0 0 0-.63-2.56 4.75 4.75 0 0 0-4.59-2.89c-1.26 0-2.26.3-3 .86a4.47 4.47 0 0 0-1.59 2.18 9.55 9.55 0 0 0-.55 2.89 25.6 25.6 0 0 0 0 2.14c.04 1.04.23 2.01.55 2.93a4.7 4.7 0 0 0 1.59 2.18c.74.54 1.74.81 3 .81Z" fill="#F7F7F7"/></g><defs><radialGradient id="b" cx="0" cy="0" r="1" gradientUnits="userSpaceOnUse" gradientTransform="matrix(0 778 -1531 0 1126 629)"><stop stop-color="#fff"/><stop offset="1" stop-color="#fff" stop-opacity="0"/></radialGradient><clipPath id="a"><path fill="#fff" d="M0 0h2251v640H0z"/></clipPath></defs></svg>